# xmcd
#
# Track frame offsets:
#	183
#	12163
#	26185
#	38028
#	54618
#	63578
#	85465
#	104088
#	118830
#	133020
#	149095
#	163335
#	178728
#	192603
#	206238
#
# Disc length: 2923 seconds
#
# Revision: 3
# Processed by: cddbd v1.5PL3 Copyright (c) Steve Scherf et al.
# Submitted via: EasyCDDAExtractor 7.0.0.1
#
DISCID=f50b690f
DTITLE=Various Artist - Music For Millions Vol. 4
DYEAR=1900
DGENRE=Instrumental
TTITLE0=Trad. - La Bamba
TTITLE1=Nino Rosso - Il Silencio
TTITLE2=W.Holyfield - Some Broken Hearts
TTITLE3=V and M Angelis - Verde
TTITLE4=Wechter/Dosch - Spanish Flee
TTITLE5=H.Bellafonten - Caribbean Discoshow
TTITLE6=W.Cosma - For The First Time
TTITLE7=Trad. - Wheels
TTITLE8=Robinson - Everybody Is Somebody's Fool
TTITLE9=Trad. - Bonanza
TTITLE10=R.Siegel/K.Hertha - Gitaren Klingen Leise Durch Die Nacht
TTITLE11=L.Johns/L.Salvador - Melody d'Amour
TTITLE12=Sigman/Rose - Buona Sera
TTITLE13=B.Kaempfert - Swinging Safari
TTITLE14=B.Kaempfert - That Happy Feeling
EXTD=
EXTT0=
EXTT1=
EXTT2=
EXTT3=
EXTT4=
EXTT5=
EXTT6=
EXTT7=
EXTT8=
EXTT9=
EXTT10=
EXTT11=
EXTT12=
EXTT13=
EXTT14=
PLAYORDER=
